# xmcd CD database file
#
# Track frame offsets:
#	150
#	20117
#	38652
#
# Disc length: 732 seconds
#
# Revision: 0
# Processed by: cddbd v1.5PL3 Copyright (c) Steve Scherf et al.
# Submitted via: CDex 1.50
#
DISCID=1d02da03
DTITLE=一青　窈 - 金魚すくい
DYEAR=2003
DGENRE=Pop
TTITLE0=金魚すくい
TTITLE1=なんもない
TTITLE2=今日わずらい
EXTD=YEAR: 2003
EXTT0=
EXTT1=
EXTT2=
PLAYORDER=
